# AST/ASF file generated using VICON BodyLanguage
# -----------------------------------------------
:version 1.10
:name VICON
:units
  mass 1.0
  length 0.45
  angle deg
:documentation
   .ast/.asf automatically generated from VICON data using
   VICON BodyBuilder and BodyLanguage model FoxedUp or BRILLIANT.MOD
:root
   order TX TY TZ RX RY RZ
   axis XYZ
   position 0 0 0  
   orientation 0 0 0 
:bonedata
  begin
     id 1 
     name lhipjoint
     direction 0.521689 -0.742065 0.420928 
     length 2.47002 
     axis 0 0 0  XYZ
  end
  begin
     id 2 
     name lfemur
     direction 0.34202 -0.939693 0  
     length 7.24654  
     axis 0 0 20  XYZ
    dof rx ry rz
    limits (-160.0 20.0)
           (-70.0 70.0)
           (-60.0 70.0)
  end
  begin
     id 3 
     name ltibia
     direction 0.34202 -0.939693 0   
     length 8.04849   
     axis 0 0 20   XYZ
    dof rx
    limits (-10.0 170.0)
  end
  begin
     id 4 
     name lfoot
     direction 0.0745411 -0.2048 0.975961   
     length 1.72367   
     axis -90 7.62852e-016 20   XYZ
    dof rx rz
    limits (-45.0 90.0)
           (-70.0 20.0)
  end
  begin
     id 5 
     name ltoes
     direction 1.53556e-011 -4.21901e-011 1   
     length 0.87311   
     axis -90 7.62852e-016 20   XYZ
    dof rx
    limits (-90.0 20.0)
  end
  begin
     id 6 
     name rhipjoint
     direction -0.52849 -0.738415 0.418857   
     length 2.48223  
     axis 0 0 0  XYZ 
  end
  begin
     id 7 
     name rfemur
     direction -0.34202 -0.939693 0   
     length 7.15571   
     axis 0 0 -20   XYZ
    dof rx ry rz
    limits (-160.0 20.0)
           (-70.0 70.0)
           (-70.0 60.0)
  end
  begin
     id 8 
     name rtibia
     direction -0.34202 -0.939693 0   
     length 7.81659   
     axis 0 0 -20   XYZ
    dof rx
    limits (-10.0 170.0)
 end
 begin
     id 9 
     name rfoot
     direction -0.0917348 -0.252039 0.963359   
     length 1.84382  
     axis -90 -7.62852e-016 -20   XYZ
    dof rx rz
    limits (-45.0 90.0)
           (-20.0 70.0)
  end
  begin
     id 10 
     name rtoes
     direction -1.53551e-011 -4.21879e-011 1   
     length 0.927771   
     axis -90 -7.62852e-016 -20   XYZ
    dof rx
    limits (-90.0 20.0)
  end
  begin
     id 11 
     name lowerback
     direction 0.00583058 0.999822 0.0179296   
     length 2.1429   
     axis 0 0 0   XYZ
    dof rx ry rz
    limits (-20.0 45.0)
           (-30.0 30.0)
           (-30.0 30.0)
  end
  begin
     id 12 
     name upperback
     direction -0.0137999 0.999752 -0.0175071   
     length 2.14252   
     axis 0 0 0   XYZ
    dof rx ry rz
    limits (-20.0 45.0)
           (-30.0 30.0)
           (-30.0 30.0)
  end
  begin
     id 13 
     name thorax
     direction -0.0158036 0.99955 -0.0254909   
     length 2.1383   
     axis 0 0 0   XYZ
    dof rx ry rz
    limits (-20.0 45.0)
           (-30.0 30.0)
           (-30.0 30.0)
  end
  begin
     id 14 
     name lowerneck
     direction -0.0101179 0.999403 -0.0330262   
     length 1.65808   
     axis 0 0 0   XYZ
    dof rx ry rz
    limits (-20.0 45.0)
           (-30.0 30.0)
           (-30.0 30.0)
  end
  begin
     id 15 
     name upperneck
     direction 0.0497734 0.995978 -0.074501   
     length 1.5897   
     axis 0 0 0   XYZ
    dof rx ry rz
    limits (-20.0 45.0)
           (-30.0 30.0)
           (-30.0 30.0)
  end
  begin
     id 16
     name head
     direction 0.0189524 0.999519 -0.0245438  
     length 1.74024  
     axis 0 0 0   XYZ
    dof rx ry rz
    limits (-20.0 45.0)
           (-30.0 30.0)
           (-30.0 30.0)
  end
  begin
     id 17 
     name lclavicle
     direction 0.945604 0.324422 0.0241537  
     length 3.59089  
     axis 0 0 0   XYZ
    dof ry rz
    limits (-20.0 10.0)
           (0.0 20.0)
  end
  begin
     id 18 
     name lhumerus
     direction 1 -4.48964e-011 -2.63524e-027   
     length 5.2391   
     axis 180 -30 -90   XYZ
    dof rx ry rz
    limits (-60.0 90.0)
           (-90.0 90.0)
           (-90.0 90.0)
  end
  begin
     id 19
     name lradius
     direction 1 -4.48969e-011 3.86978e-028   
     length 3.31467   
     axis 180 -30 -90   XYZ
    dof rx
    limits (-10.0 170.0)
  end
  begin
     id 20
     name lwrist
     direction 1 -4.48963e-011 7.20928e-028   
     length 1.65734   
     axis -5.52449e-016 90 90   XYZ
    dof ry
    limits (-180.0 0.0)
 end
  begin
     id 21 
     name lhand
     direction 1 -4.48964e-011 1.44186e-027   
     length 0.9659   
     axis -9.20027e-016 90 90   XYZ
    dof rx rz
    limits (-90.0 90.0)
           (-45.0 45.0)
  end
  begin
     id 22 
     name lfingers
     direction 1 -4.48965e-011 2.88371e-027   
     length 0.778733   
     axis -1.84005e-015 90 90   XYZ
    dof rx
    limits (0.0 90.0)
  end
  begin
     id 23
     name lthumb
     direction 0.707107 -6.34931e-011 0.707107   
     length 1.11811   
     axis -90 45 2.85299e-015   XYZ
    dof rx rz
    limits (-45.0 45.0)
           (-45.0 45.0)
  end
  begin
     id 24 
     name rclavicle
     direction -0.923762 0.370785 0.0958234   
     length 3.54196  
     axis 0 0 0   XYZ 
    dof ry rz
    limits (-10.0 20.0)
           (-20.0 0.0)
  end
  begin
     id 25 
     name rhumerus
     direction -1 -4.48966e-011 1.18702e-017  
     length 5.30252   
     axis 180 30 90   XYZ
    dof rx ry rz
    limits (-90.0 60.0)
           (-90.0 90.0)
           (-90.0 90.0)
  end
  begin
     id 26 
     name rradius
     direction -1 -4.48966e-011 4.46736e-027   
     length 3.67875   
     axis 180 30 90   XYZ
    dof rx
    limits (-10.0 170.0)
  end
  begin
     id 27 
     name rwrist
     direction -1 -4.48966e-011 7.20928e-028   
     length 1.83937   
     axis -5.52449e-016 -90 -90   XYZ
    dof ry
    limits (-180.0 0.0)
  end
  begin
     id 28
     name rhand
     direction -1 -4.48973e-011 1.44186e-027   
     length 0.594811   
     axis -9.20027e-016 -90 -90   XYZ
    dof rx rz
    limits (-90.0 90.0)
           (-45.0 45.0)
  end
  begin
     id 29
     name rfingers
     direction -1 -4.48963e-011 2.88371e-027   
     length 0.479552   
     axis -1.84005e-015 -90 -90   XYZ
    dof rx
    limits (0.0 90.0)
  end
  begin
     id 30
     name rthumb
     direction -0.707107 -6.34932e-011 0.707107   
     length 0.688544   
     axis -90 -45 -2.85299e-015   XYZ
    dof rx rz
    limits (-45.0 45.0)
           (-45.0 45.0)
  end
:hierarchy
  begin
    root lhipjoint rhipjoint lowerback
    lhipjoint lfemur
    lfemur ltibia
    ltibia lfoot
    lfoot ltoes
    rhipjoint rfemur
    rfemur rtibia
    rtibia rfoot
    rfoot rtoes
    lowerback upperback
    upperback thorax
    thorax lowerneck lclavicle rclavicle
    lowerneck upperneck
    upperneck head
    lclavicle lhumerus
    lhumerus lradius
    lradius lwrist
    lwrist lhand lthumb
    lhand lfingers
    rclavicle rhumerus
    rhumerus rradius
    rradius rwrist
    rwrist rhand rthumb
    rhand rfingers
  end

#!OML:ASF E:\acrobat2\Project_11_07_03\Capture day 1\Session 1\Acrobat.ASF
:FULLY-SPECIFIED
:DEGREES
38
root 10.2285 20.8447 -15.7147 3.14588 0.854447 -0.634862
lowerback -11.2271 -0.0349557 1.01296
upperback -5.90555 -0.125916 -1.23385
thorax 0.132654 -0.101957 -1.86174
lowerneck -2.207 -3.09955 -1.36739
upperneck 13.2276 -4.38673 2.12616
head 4.88746 -2.12815 0.749999
rclavicle -1.2424e-014 -1.66979e-014
rhumerus 75.2938 -40.776 -45.6655
rradius 19.397
rwrist 6.60998
rhand -18.4895 -25.7461
rfingers 7.12502
rthumb 7.79788 -55.5823
lclavicle -1.2424e-014 -1.66979e-014
lhumerus 75.1553 30.929 36.7068
lradius 19.95
lwrist 0.939069
lhand -15.0251 -18.1569
lfingers 7.12502
lthumb 11.1405 11.5273
rfemur 6.7251 0.695571 20.4777
rtibia 3.60312
rfoot -19.0965 -6.27503
rtoes 16.2578
lfemur -8.05864 -3.04582 -16.5313
ltibia 28.1071
lfoot -24.1867 -10.1004
ltoes 2.33281
39
root 10.2293 20.8441 -15.7203 3.14141 0.900742 -0.613953
lowerback -11.2164 -0.0530997 0.972364
upperback -5.89083 -0.145893 -1.2265
thorax 0.141678 -0.110762 -1.83341
lowerneck -2.2251 -3.10553 -1.43867
upperneck 13.2422 -4.39622 2.1741
head 4.90061 -2.13371 0.778188
rclavicle 9.93923e-016 5.96354e-015
rhumerus 75.5244 -40.7753 -45.9714
rradius 19.3461
rwrist 6.92058
rhand -18.4027 -25.6845
rfingers 7.12502
rthumb 7.88165 -55.5175
lclavicle 9.93923e-016 5.96354e-015
lhumerus 75.2875 30.9453 37.009
lradius 19.9965
lwrist 0.747257
lhand -14.9387 -18.1424
lfingers 7.12502
lthumb 11.2239 11.5374
rfemur 6.74576 0.649214 20.4495
rtibia 3.55273
rfoot -19.0942 -6.24225
rtoes 16.481
lfemur -8.08362 -3.01359 -16.5442
ltibia 28.1139
lfoot -24.1255 -10.2056
ltoes 2.55323
40
root 10.23 20.8434 -15.7261 3.14012 0.951198 -0.602416
lowerback -11.2013 -0.0746902 0.940539
upperback -5.88448 -0.17135 -1.21468
thorax 0.139396 -0.122576 -1.80595
lowerneck -2.21583 -3.10381 -1.52207
upperneck 13.2387 -4.39581 2.23496
head 4.90202 -2.13465 0.813975
rclavicle -4.57205e-015 -9.54166e-015
rhumerus 75.6992 -40.7633 -46.2022
rradius 19.315
rwrist 7.13907
rhand -18.3595 -25.6554
rfingers 7.12502
rthumb 7.92335 -55.4869
lclavicle -4.57205e-015 -9.54166e-015
lhumerus 75.3824 30.9606 37.2724
lradius 20.056
lwrist 0.585544
lhand -14.9625 -18.1691
lfingers 7.12502
lthumb 11.2009 11.5119
rfemur 6.82367 0.600092 20.4228
rtibia 3.3869
rfoot -19.0468 -6.21088
rtoes 16.8173
lfemur -8.11764 -2.98029 -16.5445
ltibia 28.1335
lfoot -24.0748 -10.3108
ltoes 2.70949
41
root 10.2306 20.8428 -15.7317 3.14552 0.996816 -0.605379
lowerback -11.1869 -0.0955434 0.927366
upperback -5.88665 -0.197719 -1.20001
thorax 0.128464 -0.135327 -1.78614
lowerneck -2.18245 -3.10106 -1.6071
upperneck 13.2236 -4.39355 2.29331
head 4.89411 -2.13516 0.849715
rclavicle 1.59028e-014 3.97569e-016
rhumerus 75.8292 -40.7407 -46.3749
rradius 19.2988
rwrist 7.27072
rhand -18.3505 -25.6605
rfingers 7.12502
rthumb 7.93205 -55.4917
lclavicle 1.59028e-014 3.97569e-016
lhumerus 75.4463 30.9763 37.4967
lradius 20.1217
lwrist 0.438271
lhand -15.1183 -18.2525
lfingers 7.12502
lthumb 11.0506 11.4366
rfemur 6.96365 0.557608 20.4012
rtibia 3.09096
rfoot -18.9429 -6.19492
rtoes 17.2064
lfemur -8.15931 -2.94023 -16.5279
ltibia 28.1635
lfoot -24.0434 -10.4004
ltoes 2.7281
42
root 10.2311 20.8429 -15.7368 3.15708 1.03218 -0.626876
lowerback -11.1763 -0.113587 0.938431
upperback -5.89739 -0.222807 -1.18219
thorax 0.110632 -0.148025 -1.77655
lowerneck -2.11988 -3.10111 -1.69961
upperneck 13.198 -4.39501 2.35403
head 4.87685 -2.13808 0.887871
rclavicle -1.12313e-014 -2.0276e-014
rhumerus 75.9285 -40.7036 -46.5134
rradius 19.2902
rwrist 7.34027
rhand -18.3564 -25.6848
rfingers 7.12502
rthumb 7.92632 -55.5162
lclavicle -1.12313e-014 -2.0276e-014
lhumerus 75.4845 30.9931 37.6857
lradius 20.1867
lwrist 0.287395
lhand -15.3888 -18.3838
lfingers 7.12502
lthumb 10.7897 11.319
rfemur 7.16554 0.527262 20.3895
rtibia 2.66319
rfoot -18.7719 -6.22775
rtoes 17.4501
lfemur -8.20235 -2.89836 -16.4919
ltibia 28.1976
lfoot -24.0339 -10.4645
ltoes 2.61277
43
root 10.2315 20.8436 -15.7414 3.1714 1.05804 -0.66962
lowerback -11.17 -0.130012 0.971283
upperback -5.91346 -0.247974 -1.1571
thorax 0.0894211 -0.161197 -1.77173
lowerneck -2.03337 -3.11081 -1.80349
upperneck 13.1685 -4.4095 2.41722
head 4.85409 -2.14812 0.928584
rclavicle 1.0138e-014 1.63003e-014
rhumerus 76.0055 -40.6513 -46.6232
rradius 19.2852
rwrist 7.36988
rhand -18.3579 -25.7113
rfingers 7.12502
rthumb 7.92496 -55.5427
lclavicle 1.0138e-014 1.63003e-014
lhumerus 75.5135 31.017 37.8634
lradius 20.2431
lwrist 0.10773
lhand -15.7034 -18.5272
lfingers 7.12502
lthumb 10.4863 11.1913
rfemur 7.41281 0.507971 20.395
rtibia 2.14132
rfoot -18.5484 -6.31269
rtoes 17.4941
lfemur -8.24087 -2.8568 -16.4329
ltibia 28.2266
lfoot -24.0353 -10.5132
ltoes 2.45778
44
root 10.2317 20.8447 -15.7459 3.18351 1.07587 -0.724554
lowerback -11.1646 -0.146522 1.01305
upperback -5.93044 -0.274208 -1.12395
thorax 0.067702 -0.175 -1.76368
lowerneck -1.93374 -3.14483 -1.90846
upperneck 13.1391 -4.45497 2.46087
head 4.82909 -2.17462 0.961416
rclavicle -1.20265e-014 -1.86858e-014
rhumerus 76.0952 -40.5892 -46.7404
rradius 19.2733
rwrist 7.39618
rhand -18.3475 -25.7238
rfingers 7.12502
rthumb 7.93493 -55.5549
lclavicle -1.20265e-014 -1.86858e-014
lhumerus 75.552 31.0536 38.0596
lradius 20.2845
lwrist -0.129738
lhand -15.9873 -18.6437
lfingers 7.12502
lthumb 10.2124 11.0884
rfemur 7.65754 0.485061 20.414
rtibia 1.62721
rfoot -18.3137 -6.41259
rtoes 17.3729
lfemur -8.26893 -2.81702 -16.361
ltibia 28.2418
lfoot -24.0351 -10.5534
ltoes 2.32366
45
root 10.2318 20.8461 -15.7504 3.18969 1.09114 -0.772043
lowerback -11.1568 -0.166005 1.04324
upperback -5.94348 -0.303275 -1.08723
thorax 0.0488369 -0.189877 -1.74568
lowerneck -1.81083 -3.21629 -1.99746
upperneck 13.0859 -4.54589 2.45239
head 4.7897 -2.22567 0.971751
rclavicle 3.97569e-015 9.54166e-015
rhumerus 76.2105 -40.5245 -46.8768
rradius 19.2524
rwrist 7.43344
rhand -18.3321 -25.7151
rfingers 7.12502
rthumb 7.9498 -55.5456
lclavicle 3.97569e-015 9.54166e-015
lhumerus 75.6061 31.1049 38.2856
lradius 20.316
lwrist -0.419858
lhand -16.1941 -18.7044
lfingers 7.12502
lthumb 10.0129 11.0374
rfemur 7.8066 0.473813 20.4419
rtibia 1.304
rfoot -18.1608 -6.49961
rtoes 17.1443
lfemur -8.2844 -2.78945 -16.299
ltibia 28.2396
lfoot -24.0283 -10.5864
ltoes 2.25902
46
root 10.232 20.8471 -15.7553 3.18584 1.10847 -0.801294
lowerback -11.1464 -0.18914 1.05172
upperback -5.94705 -0.335039 -1.0511
thorax 0.0384697 -0.205505 -1.71637
lowerneck -1.6416 -3.33566 -2.06024
upperneck 12.9778 -4.69424 2.37127
head 4.71902 -2.3079 0.95088
rclavicle -2.16675e-014 -1.31198e-014
rhumerus 76.3368 -40.4657 -47.0143
rradius 19.2289
rwrist 7.47965
rhand -18.3147 -25.6866
rfingers 7.12502
rthumb 7.9666 -55.5164
lclavicle -2.16675e-014 -1.31198e-014
lhumerus 75.6738 31.1703 38.5346
lradius 20.3434
lwrist -0.743515
lhand -16.3039 -18.7001
lfingers 7.12502
lthumb 9.90699 11.0468
rfemur 7.76047 0.457375 20.4812
rtibia 1.37287
rfoot -18.1765 -6.50481
rtoes 16.9217
lfemur -8.28591 -2.77563 -16.2585
ltibia 28.2211
lfoot -24.0104 -10.6263
ltoes 2.31419
